TITLE ""
FILE "DISC2Track26.mp3" MP3
  TRACK 01 AUDIO
    TITLE "DISC2Track26_01"
    INDEX 01 00:00:00
  TRACK 02 AUDIO
    TITLE "DISC2Track26_02"
    INDEX 01 00:06:23
  TRACK 03 AUDIO
    TITLE "DISC2Track26_03"
    INDEX 01 00:06:52
  TRACK 04 AUDIO
    TITLE "DISC2Track26_04"
    INDEX 01 00:09:37
  TRACK 05 AUDIO
    TITLE "DISC2Track26_05"
    INDEX 01 00:12:35
  TRACK 06 AUDIO
    TITLE "DISC2Track26_06"
    INDEX 01 00:15:22
  TRACK 07 AUDIO
    TITLE "DISC2Track26_07"
    INDEX 01 00:15:47
  TRACK 08 AUDIO
    TITLE "DISC2Track26_08"
    INDEX 01 00:19:04
  TRACK 09 AUDIO
    TITLE "DISC2Track26_09"
    INDEX 01 00:21:59
  TRACK 10 AUDIO
    TITLE "DISC2Track26_10"
    INDEX 01 00:24:36
  TRACK 11 AUDIO
    TITLE "DISC2Track26_11"
    INDEX 01 00:24:60
  TRACK 12 AUDIO
    TITLE "DISC2Track26_12"
    INDEX 01 00:29:06
  TRACK 13 AUDIO
    TITLE "DISC2Track26_13"
    INDEX 01 00:32:14
  TRACK 14 AUDIO
    TITLE "DISC2Track26_14"
    INDEX 01 00:35:13
  TRACK 15 AUDIO
    TITLE "DISC2Track26_15"
    INDEX 01 00:35:34
  TRACK 16 AUDIO
    TITLE "DISC2Track26_16"
    INDEX 01 00:39:42
  TRACK 17 AUDIO
    TITLE "DISC2Track26_17"
    INDEX 01 00:43:14
  TRACK 18 AUDIO
    TITLE "DISC2Track26_18"
    INDEX 01 00:46:55
  TRACK 19 AUDIO
    TITLE "DISC2Track26_19"
    INDEX 01 00:47:02
  TRACK 20 AUDIO
    TITLE "DISC2Track26_20"
    INDEX 01 00:51:39
  TRACK 21 AUDIO
    TITLE "DISC2Track26_21"
    INDEX 01 00:54:71
  TRACK 22 AUDIO
    TITLE "DISC2Track26_22"
    INDEX 01 00:58:14
  TRACK 23 AUDIO
    TITLE "DISC2Track26_23"
    INDEX 01 00:58:41
  TRACK 24 AUDIO
    TITLE "DISC2Track26_24"
    INDEX 01 01:01:57
  TRACK 25 AUDIO
    TITLE "DISC2Track26_25"
    INDEX 01 01:04:44
  TRACK 26 AUDIO
    TITLE "DISC2Track26_26"
    INDEX 01 01:07:20
  TRACK 27 AUDIO
    TITLE "DISC2Track26_27"
    INDEX 01 01:07:42
  TRACK 28 AUDIO
    TITLE "DISC2Track26_28"
    INDEX 01 01:12:02
  TRACK 29 AUDIO
    TITLE "DISC2Track26_29"
    INDEX 01 01:15:00
  TRACK 30 AUDIO
    TITLE "DISC2Track26_30"
    INDEX 01 01:17:62
  TRACK 31 AUDIO
    TITLE "DISC2Track26_31"
    INDEX 01 01:18:12
  TRACK 32 AUDIO
    TITLE "DISC2Track26_32"
    INDEX 01 01:21:40
  TRACK 33 AUDIO
    TITLE "DISC2Track26_33"
    INDEX 01 01:24:68
  TRACK 34 AUDIO
    TITLE "DISC2Track26_34"
    INDEX 01 01:28:13
  TRACK 35 AUDIO
    TITLE "DISC2Track26_35"
    INDEX 01 01:28:36
  TRACK 36 AUDIO
    TITLE "DISC2Track26_36"
    INDEX 01 01:31:66
  TRACK 37 AUDIO
    TITLE "DISC2Track26_37"
    INDEX 01 01:34:58
  TRACK 38 AUDIO
    TITLE "DISC2Track26_38"
    INDEX 01 01:37:31
  TRACK 39 AUDIO
    TITLE "DISC2Track26_39"
    INDEX 01 01:37:65
  TRACK 40 AUDIO
    TITLE "DISC2Track26_40"
    INDEX 01 01:42:72
  TRACK 41 AUDIO
    TITLE "DISC2Track26_41"
    INDEX 01 01:47:38
  TRACK 42 AUDIO
    TITLE "DISC2Track26_42"
    INDEX 01 01:51:65
